<svg width="600" height="450" viewBox="0 0 600 450" fill="none" xmlns="http://www.w3.org/2000/svg">
<g clip-path="url(#clip0_1_53)">
<circle cx="300" cy="385.5" r="300" fill="#FFD700"/>
<path d="M384 419C387 422 390 423 393 450H0C3 423 6 422 9 419C18 410 39 406 69 394C99 382 117 363 117 351C102 336 70 290 70 248C70 163 169 63 169 63H224C224 63 233 72 248 90C248 120 238 160 208 190C258 190 275 126 275 126C275 126 323 190 323 248C323 290 291 336 276 351C276 363 294 382 324 394C354 406 375 410 384 419Z" fill="#660000"/>
<circle cx="37.5" cy="37.5" r="37.5" transform="matrix(-1 0 0 1 234 0)" fill="#660000"/>
<path d="M216 419C213 422 210 423 207 450H600C597 423 594 422 591 419C582 410 561 406 531 394C501 382 483 363 483 351C498 336 530 290 530 248C530 163 431 63 431 63H376C376 63 367 72 352 90C352 120 362 160 392 190C342 190 325 126 325 126C325 126 277 190 277 248C277 290 309 336 324 351C324 363 306 382 276 394C246 406 225 410 216 419Z" fill="#CC0000"/>
<circle cx="403.5" cy="37.5" r="37.5" fill="#CC0000"/>
</g>
<defs>
<clipPath id="clip0_1_53">
<rect width="600" height="450" fill="white"/>
</clipPath>
</defs>
</svg>
